<svg width="42" height="43" viewBox="0 0 42 43" fill="none" xmlns="http://www.w3.org/2000/svg">
<path d="M39.1393 21.9028C39.1393 20.4115 39.0159 19.3232 38.7486 18.1947H21.3719V24.9257H31.5717C31.3661 26.5984 30.2556 29.1175 27.7879 30.8103L27.7533 31.0356L33.2475 35.2068L33.6281 35.244C37.124 32.08 39.1393 27.4246 39.1393 21.9028Z" fill="#4285F4"/>
<path d="M21.3708 39.6375C26.3678 39.6375 30.5628 38.0252 33.627 35.2442L27.7868 30.8104C26.2239 31.8785 24.1263 32.6242 21.3708 32.6242C16.4766 32.6242 12.3227 29.4602 10.8419 25.087L10.6249 25.1051L4.91199 29.438L4.83728 29.6416C7.88073 35.5665 14.1322 39.6375 21.3708 39.6375Z" fill="#34A853"/>
<path d="M10.8431 25.0872C10.4523 23.9586 10.2262 22.7494 10.2262 21.4999C10.2262 20.2504 10.4523 19.0413 10.8225 17.9127L10.8121 17.6724L5.02762 13.2699L4.83836 13.3581C3.58401 15.8168 2.86426 18.5778 2.86426 21.4999C2.86426 24.4221 3.58401 27.183 4.83836 29.6416L10.8431 25.0872Z" fill="#FBBC05"/>
<path d="M21.3709 10.3756C24.8462 10.3756 27.1905 11.8467 28.5272 13.0761L33.7505 8.07819C30.5426 5.15604 26.3679 3.36243 21.3709 3.36243C14.1323 3.36243 7.88075 7.43327 4.83728 13.3582L10.8214 17.9128C12.3227 13.5396 16.4767 10.3756 21.3709 10.3756Z" fill="#EB4335"/>
</svg>
