<svg width="232" height="34" viewBox="0 0 232 34" fill="none" xmlns="http://www.w3.org/2000/svg">
<g filter="url(#filter0_d_186_12)">
<path d="M16.8193 16.5321C16.8193 17.6578 16.7051 18.7326 16.4766 19.7567C16.2565 20.7808 15.8883 21.6864 15.3721 22.4735C14.8643 23.2606 14.2041 23.8912 13.3916 24.3651C12.5876 24.8306 11.6058 25.0634 10.4463 25.0634C9.28678 25.0634 8.30501 24.8264 7.50098 24.3524C6.69694 23.87 6.03678 23.2352 5.52051 22.4481C5.0127 21.661 4.64453 20.7512 4.41602 19.7186C4.19596 18.6861 4.08594 17.6154 4.08594 16.5067C4.08594 15.398 4.19596 14.3274 4.41602 13.2948C4.64453 12.2622 5.0127 11.3482 5.52051 10.5526C6.03678 9.75704 6.69694 9.12227 7.50098 8.64832C8.30501 8.16589 9.28678 7.92468 10.4463 7.92468C10.7764 7.92468 11.1149 7.97123 11.4619 8.06433C11.8089 8.15743 12.139 8.30131 12.4521 8.49597C12.7653 8.68217 13.0404 8.91492 13.2773 9.19421C13.5228 9.47351 13.6963 9.79513 13.7979 10.1591V8.20398H16.1719V14.0819H13.7979C13.7979 13.5656 13.7174 13.079 13.5566 12.6219C13.3958 12.1565 13.1673 11.7502 12.8711 11.4032C12.5749 11.0562 12.2194 10.7854 11.8047 10.5907C11.39 10.3876 10.9372 10.286 10.4463 10.286C9.7015 10.286 9.09212 10.4722 8.61816 10.8446C8.14421 11.217 7.76335 11.6994 7.47559 12.2919C7.18783 12.8843 6.9847 13.5487 6.86621 14.285C6.75618 15.0214 6.70117 15.7619 6.70117 16.5067C6.70117 17.2515 6.75618 17.9921 6.86621 18.7284C6.9847 19.4647 7.18359 20.1291 7.46289 20.7216C7.74219 21.3055 8.12305 21.7795 8.60547 22.1434C9.08789 22.5074 9.7015 22.6893 10.4463 22.6893C11.5212 22.6893 12.3887 22.3466 13.0488 21.661C13.709 20.9755 14.1618 19.9133 14.4072 18.4745H10.916V16.1132H16.8193V16.5321ZM30.0732 15.745C29.7601 15.5927 29.4385 15.4784 29.1084 15.4022C28.7868 15.3176 28.4144 15.2753 27.9912 15.2753C27.4072 15.2753 26.8571 15.3641 26.3408 15.5419C25.833 15.7111 25.3929 15.9693 25.0205 16.3163C24.6481 16.6633 24.3561 17.0992 24.1445 17.6239C23.9414 18.1402 23.8398 18.7538 23.8398 19.4647V22.41H26.4932V24.7714H18.5332V22.41H21.2119V15.3134H18.5332V12.9393H23.8398V15.91C24.2715 14.7251 24.9062 13.8872 25.7441 13.3964C26.5905 12.9055 27.5934 12.66 28.7529 12.66C29.1169 12.66 29.4977 12.6981 29.8955 12.7743C30.2933 12.8505 30.6826 12.9859 31.0635 13.1805L30.0732 15.745ZM32.6758 21.369C32.6758 20.675 32.862 20.0699 33.2344 19.5536C33.6068 19.0288 34.0934 18.593 34.6943 18.246C35.3037 17.899 35.9977 17.6408 36.7764 17.4716C37.5635 17.2938 38.3633 17.205 39.1758 17.205C39.6243 17.205 40.0094 17.2134 40.3311 17.2303C40.6527 17.2473 40.9785 17.2727 41.3086 17.3065V16.8368C41.3086 16.219 41.0674 15.7577 40.585 15.453C40.111 15.1483 39.4847 14.996 38.7061 14.996C37.9951 14.996 37.2715 15.0975 36.5352 15.3007C35.7988 15.4953 35.1006 15.7831 34.4404 16.1639L33.374 14.1073C34.1527 13.6587 34.9863 13.3075 35.875 13.0536C36.7721 12.7912 37.7158 12.66 38.7061 12.66C39.3493 12.66 39.9798 12.732 40.5977 12.8759C41.224 13.0197 41.7826 13.2567 42.2734 13.5868C42.7728 13.9169 43.1706 14.3485 43.4668 14.8817C43.763 15.4065 43.9111 16.0581 43.9111 16.8368V24.7714H41.3086V23.0321C40.8939 23.6753 40.2803 24.1747 39.4678 24.5302C38.6637 24.8856 37.7962 25.0634 36.8652 25.0634C36.2897 25.0634 35.7438 24.983 35.2275 24.8221C34.7197 24.6698 34.2796 24.4371 33.9072 24.1239C33.5348 23.8108 33.2344 23.4257 33.0059 22.9686C32.7858 22.5031 32.6758 21.9699 32.6758 21.369ZM37.5381 22.7147C38.0544 22.7147 38.5368 22.6512 38.9854 22.5243C39.4424 22.3889 39.8444 22.2069 40.1914 21.9784C40.5384 21.7414 40.8092 21.4579 41.0039 21.1278C41.207 20.7977 41.3086 20.4338 41.3086 20.036V19.5917C40.8939 19.524 40.5046 19.4859 40.1406 19.4774C39.7767 19.469 39.4551 19.4647 39.1758 19.4647C37.8893 19.4647 36.916 19.634 36.2559 19.9725C35.6042 20.3111 35.2783 20.73 35.2783 21.2294C35.2783 22.2196 36.0316 22.7147 37.5381 22.7147ZM58.1299 24.7714H55.502V17.4716C55.502 16.549 55.3285 15.91 54.9814 15.5546C54.6344 15.1991 54.1309 15.0214 53.4707 15.0214C52.4974 15.0214 51.7018 15.4149 51.084 16.202C50.4746 16.9891 50.1699 18.0767 50.1699 19.4647V24.7714H47.542V12.9393H50.1699V15.91C50.4323 14.8859 50.9189 14.0904 51.6299 13.5233C52.3408 12.9478 53.2168 12.66 54.2578 12.66C55.4681 12.66 56.416 13.0536 57.1016 13.8407C57.7871 14.6278 58.1299 15.8381 58.1299 17.4716V24.7714ZM61.0625 21.369C61.0625 20.675 61.2487 20.0699 61.6211 19.5536C61.9935 19.0288 62.4801 18.593 63.0811 18.246C63.6904 17.899 64.3844 17.6408 65.1631 17.4716C65.9502 17.2938 66.75 17.205 67.5625 17.205C68.0111 17.205 68.3962 17.2134 68.7178 17.2303C69.0394 17.2473 69.3652 17.2727 69.6953 17.3065V16.8368C69.6953 16.219 69.4541 15.7577 68.9717 15.453C68.4977 15.1483 67.8714 14.996 67.0928 14.996C66.3818 14.996 65.6582 15.0975 64.9219 15.3007C64.1855 15.4953 63.4873 15.7831 62.8271 16.1639L61.7607 14.1073C62.5394 13.6587 63.373 13.3075 64.2617 13.0536C65.1589 12.7912 66.1025 12.66 67.0928 12.66C67.736 12.66 68.3665 12.732 68.9844 12.8759C69.6107 13.0197 70.1693 13.2567 70.6602 13.5868C71.1595 13.9169 71.5573 14.3485 71.8535 14.8817C72.1497 15.4065 72.2979 16.0581 72.2979 16.8368V24.7714H69.6953V23.0321C69.2806 23.6753 68.667 24.1747 67.8545 24.5302C67.0505 24.8856 66.1829 25.0634 65.252 25.0634C64.6764 25.0634 64.1305 24.983 63.6143 24.8221C63.1064 24.6698 62.6663 24.4371 62.2939 24.1239C61.9215 23.8108 61.6211 23.4257 61.3926 22.9686C61.1725 22.5031 61.0625 21.9699 61.0625 21.369ZM65.9248 22.7147C66.4411 22.7147 66.9235 22.6512 67.3721 22.5243C67.8291 22.3889 68.2311 22.2069 68.5781 21.9784C68.9251 21.7414 69.196 21.4579 69.3906 21.1278C69.5938 20.7977 69.6953 20.4338 69.6953 20.036V19.5917C69.2806 19.524 68.8913 19.4859 68.5273 19.4774C68.1634 19.469 67.8418 19.4647 67.5625 19.4647C66.276 19.4647 65.3027 19.634 64.6426 19.9725C63.9909 20.3111 63.665 20.73 63.665 21.2294C63.665 22.2196 64.4183 22.7147 65.9248 22.7147ZM87.3926 19.7059C87.1895 20.5184 86.9186 21.2548 86.5801 21.9149C86.2415 22.5751 85.8268 23.1379 85.3359 23.6034C84.8535 24.0689 84.2865 24.4286 83.6348 24.6825C82.9915 24.9364 82.251 25.0634 81.4131 25.0634C80.2536 25.0634 79.2718 24.8264 78.4678 24.3524C77.6637 23.87 77.0036 23.231 76.4873 22.4354C75.9795 21.6314 75.6113 20.7173 75.3828 19.6932C75.1628 18.6607 75.0527 17.59 75.0527 16.4813C75.0527 15.3726 75.1628 14.302 75.3828 13.2694C75.6113 12.2369 75.9753 11.327 76.4746 10.5399C76.9824 9.75281 77.6257 9.12227 78.4043 8.64832C79.1829 8.16589 80.1351 7.92468 81.2607 7.92468C81.6247 7.92468 81.9928 7.97123 82.3652 8.06433C82.7376 8.15743 83.0846 8.30131 83.4062 8.49597C83.7279 8.68217 84.0072 8.91492 84.2441 9.19421C84.4896 9.47351 84.6631 9.79513 84.7646 10.1591V8.20398H87.1387V14.4755H84.7646C84.7646 13.9592 84.7012 13.4514 84.5742 12.952C84.4473 12.4442 84.2441 11.9956 83.9648 11.6063C83.6855 11.217 83.3343 10.8996 82.9111 10.6542C82.488 10.4087 81.9886 10.286 81.4131 10.286C80.6683 10.286 80.0589 10.468 79.585 10.8319C79.111 11.1958 78.7301 11.674 78.4424 12.2665C78.1546 12.8589 77.9515 13.5233 77.833 14.2596C77.723 14.996 77.668 15.7365 77.668 16.4813C77.668 17.2261 77.723 17.9709 77.833 18.7157C77.9515 19.4605 78.1504 20.1291 78.4297 20.7216C78.709 21.3055 79.0898 21.7795 79.5723 22.1434C80.0547 22.5074 80.6683 22.6893 81.4131 22.6893C82.488 22.6893 83.3132 22.3466 83.8887 21.661C84.4727 20.9755 84.9382 20.0529 85.2852 18.8934L87.3926 19.7059ZM101.637 18.868C101.637 19.7906 101.489 20.6285 101.192 21.3817C100.905 22.135 100.486 22.7867 99.9355 23.3368C99.3939 23.8785 98.7422 24.3016 97.9805 24.6063C97.2188 24.911 96.3682 25.0634 95.4287 25.0634C94.5062 25.0634 93.6641 24.911 92.9023 24.6063C92.1406 24.3016 91.4847 23.8785 90.9346 23.3368C90.3929 22.7867 89.974 22.135 89.6777 21.3817C89.39 20.6285 89.2461 19.7906 89.2461 18.868C89.2461 17.9709 89.39 17.1415 89.6777 16.3798C89.974 15.6096 90.3929 14.9494 90.9346 14.3993C91.4847 13.8407 92.1406 13.4133 92.9023 13.1171C93.6641 12.8124 94.5062 12.66 95.4287 12.66C96.3682 12.66 97.2188 12.8124 97.9805 13.1171C98.7422 13.4133 99.3939 13.8407 99.9355 14.3993C100.486 14.9494 100.905 15.6096 101.192 16.3798C101.489 17.1415 101.637 17.9709 101.637 18.868ZM99.0215 18.868C99.0215 18.3348 98.9368 17.8313 98.7676 17.3573C98.6068 16.8749 98.3698 16.4644 98.0566 16.1259C97.7435 15.7873 97.3626 15.5207 96.9141 15.326C96.474 15.1229 95.9788 15.0214 95.4287 15.0214C94.8701 15.0214 94.3708 15.1229 93.9307 15.326C93.4906 15.5207 93.1182 15.7873 92.8135 16.1259C92.5088 16.4644 92.2718 16.8749 92.1025 17.3573C91.9417 17.8313 91.8613 18.3348 91.8613 18.868C91.8613 19.4266 91.9417 19.9344 92.1025 20.3915C92.2718 20.8485 92.5088 21.2505 92.8135 21.5975C93.1182 21.9445 93.4906 22.2154 93.9307 22.41C94.3708 22.5962 94.8701 22.6893 95.4287 22.6893C95.9788 22.6893 96.474 22.5962 96.9141 22.41C97.3626 22.2154 97.7435 21.9445 98.0566 21.5975C98.3698 21.2505 98.6068 20.8485 98.7676 20.3915C98.9368 19.9344 99.0215 19.4266 99.0215 18.868ZM114.903 24.7714H112.275V17.4716C112.275 16.549 112.102 15.91 111.755 15.5546C111.408 15.1991 110.904 15.0214 110.244 15.0214C109.271 15.0214 108.475 15.4149 107.857 16.202C107.248 16.9891 106.943 18.0767 106.943 19.4647V24.7714H104.315V12.9393H106.943V15.91C107.206 14.8859 107.692 14.0904 108.403 13.5233C109.114 12.9478 109.99 12.66 111.031 12.66C112.242 12.66 113.189 13.0536 113.875 13.8407C114.561 14.6278 114.903 15.8381 114.903 17.4716V24.7714ZM129.846 21.0009C129.71 22.245 129.219 23.2352 128.373 23.9716C127.535 24.6994 126.486 25.0634 125.225 25.0634C124.531 25.0634 123.896 24.9491 123.32 24.7206C122.745 24.4921 122.254 24.1747 121.848 23.7684C121.441 23.3622 121.124 22.8755 120.896 22.3085C120.675 21.733 120.565 21.1066 120.565 20.4296V15.3134H117.887V12.9393H120.565V8.20398H123.193V12.9393H128.157V15.3134H123.193V20.4296C123.193 21.1913 123.38 21.7583 123.752 22.1307C124.124 22.5031 124.615 22.6893 125.225 22.6893C125.969 22.6893 126.524 22.4735 126.888 22.0419C127.252 21.6102 127.467 21.0897 127.535 20.4803L129.846 21.0009ZM143.62 15.745C143.307 15.5927 142.985 15.4784 142.655 15.4022C142.334 15.3176 141.961 15.2753 141.538 15.2753C140.954 15.2753 140.404 15.3641 139.888 15.5419C139.38 15.7111 138.94 15.9693 138.567 16.3163C138.195 16.6633 137.903 17.0992 137.691 17.6239C137.488 18.1402 137.387 18.7538 137.387 19.4647V22.41H140.04V24.7714H132.08V22.41H134.759V15.3134H132.08V12.9393H137.387V15.91C137.818 14.7251 138.453 13.8872 139.291 13.3964C140.137 12.9055 141.14 12.66 142.3 12.66C142.664 12.66 143.045 12.6981 143.442 12.7743C143.84 12.8505 144.229 12.9859 144.61 13.1805L143.62 15.745ZM158.41 18.868C158.41 19.7906 158.262 20.6285 157.966 21.3817C157.678 22.135 157.259 22.7867 156.709 23.3368C156.167 23.8785 155.516 24.3016 154.754 24.6063C153.992 24.911 153.142 25.0634 152.202 25.0634C151.28 25.0634 150.438 24.911 149.676 24.6063C148.914 24.3016 148.258 23.8785 147.708 23.3368C147.166 22.7867 146.747 22.135 146.451 21.3817C146.163 20.6285 146.02 19.7906 146.02 18.868C146.02 17.9709 146.163 17.1415 146.451 16.3798C146.747 15.6096 147.166 14.9494 147.708 14.3993C148.258 13.8407 148.914 13.4133 149.676 13.1171C150.438 12.8124 151.28 12.66 152.202 12.66C153.142 12.66 153.992 12.8124 154.754 13.1171C155.516 13.4133 156.167 13.8407 156.709 14.3993C157.259 14.9494 157.678 15.6096 157.966 16.3798C158.262 17.1415 158.41 17.9709 158.41 18.868ZM155.795 18.868C155.795 18.3348 155.71 17.8313 155.541 17.3573C155.38 16.8749 155.143 16.4644 154.83 16.1259C154.517 15.7873 154.136 15.5207 153.688 15.326C153.247 15.1229 152.752 15.0214 152.202 15.0214C151.644 15.0214 151.144 15.1229 150.704 15.326C150.264 15.5207 149.892 15.7873 149.587 16.1259C149.282 16.4644 149.045 16.8749 148.876 17.3573C148.715 17.8313 148.635 18.3348 148.635 18.868C148.635 19.4266 148.715 19.9344 148.876 20.3915C149.045 20.8485 149.282 21.2505 149.587 21.5975C149.892 21.9445 150.264 22.2154 150.704 22.41C151.144 22.5962 151.644 22.6893 152.202 22.6893C152.752 22.6893 153.247 22.5962 153.688 22.41C154.136 22.2154 154.517 21.9445 154.83 21.5975C155.143 21.2505 155.38 20.8485 155.541 20.3915C155.71 19.9344 155.795 19.4266 155.795 18.868ZM170.42 24.7714H162.473V22.41H165.062V10.578H162.473V8.20398H167.69V22.41H170.42V24.7714Z" fill="#EFF28D"/>
</g>
<path d="M188.31 2.48136V32.0914H186.72V2.48136H188.31Z" fill="#EFF28D"/>
<path d="M226.438 10.7714H229.312V20.0839L225.562 21.3339L223.312 28.7714H216V26.0839H213.312V28.7714H206C206 28.7714 205.917 28.5005 205.75 27.9589C205.583 27.3755 205.375 26.6255 205.125 25.7089C204.875 24.7922 204.604 23.7714 204.312 22.6464C204.062 21.5214 203.792 20.3755 203.5 19.2089C203.25 18.0422 203.042 16.9589 202.875 15.9589C202.75 14.9589 202.688 14.1255 202.688 13.4589C202.688 12.0839 203 10.8547 203.625 9.77136C204.292 8.64636 205.188 7.75053 206.312 7.08386C207.438 6.4172 208.667 6.08386 210 6.08386H216.688C217.271 5.2922 218.021 4.6672 218.938 4.20886C219.896 3.70886 220.917 3.45886 222 3.45886C222.542 3.45886 223 3.64636 223.375 4.02136C223.792 4.39636 224 4.87553 224 5.45886C224 5.70886 223.938 5.95886 223.812 6.20886C223.646 6.6672 223.521 7.18803 223.438 7.77136L226.438 10.7714ZM217.312 12.7714V10.0839H210.688V12.7714H217.312ZM221.312 15.4589C221.688 15.4589 222 15.3339 222.25 15.0839C222.542 14.7922 222.688 14.4589 222.688 14.0839C222.688 13.7505 222.542 13.4589 222.25 13.2089C222 12.9172 221.688 12.7714 221.312 12.7714C220.979 12.7714 220.667 12.9172 220.375 13.2089C220.125 13.4589 220 13.7505 220 14.0839C220 14.4589 220.125 14.7922 220.375 15.0839C220.667 15.3339 220.979 15.4589 221.312 15.4589Z" fill="#EFF28D"/>
<defs>
<filter id="filter0_d_186_12" x="0.0859375" y="7.92468" width="174.334" height="25.1387" filterUnits="userSpaceOnUse" color-interpolation-filters="sRGB">
<feFlood flood-opacity="0" result="BackgroundImageFix"/>
<feColorMatrix in="SourceAlpha" type="matrix" values="0 0 0 0 0 0 0 0 0 0 0 0 0 0 0 0 0 0 127 0" result="hardAlpha"/>
<feOffset dy="4"/>
<feGaussianBlur stdDeviation="2"/>
<feComposite in2="hardAlpha" operator="out"/>
<feColorMatrix type="matrix" values="0 0 0 0 0 0 0 0 0 0 0 0 0 0 0 0 0 0 0.25 0"/>
<feBlend mode="normal" in2="BackgroundImageFix" result="effect1_dropShadow_186_12"/>
<feBlend mode="normal" in="SourceGraphic" in2="effect1_dropShadow_186_12" result="shape"/>
</filter>
</defs>
</svg>
